<svg xmlns="http://www.w3.org/2000/svg" width="1161" height="172" viewBox="0 0 1161 172">
    <g fill="#000" fill-opacity=".1" fill-rule="evenodd" stroke="#A5A5A5" stroke-linecap="round">
        <path stroke-dasharray="3.217,4.289" stroke-width=".536" d="M184.763 7H15.237C6.857 7 0 7.086 0 7.19v.619C0 7.914 6.887 8 15.305 8h169.458C193.143 8 200 7.914 200 7.81v-.62c0-.104-6.857-.19-15.237-.19zM1144.763 5H975.237c-8.38 0-15.237.086-15.237.19v.619c0 .105 6.887.191 15.305.191h169.458c8.38 0 15.237-.086 15.237-.19v-.62c0-.104-6.857-.19-15.237-.19z"/>
        <path stroke-dasharray="0.5,4" d="M581.19 171h-.38C534.168 171 496 132.833 496 86.19 496 39.335 534.336 1 581.19 1 627.832 1 666 39.167 666 85.81v.38c0 46.643-38.167 84.81-84.81 84.81z"/>
    </g>
</svg>
