<svg xmlns="http://www.w3.org/2000/svg" width="24" height="24" viewBox="0 0 24 24">
    <path fill="#FFF" fill-rule="evenodd" d="M21.232 10.153h-2.09c.152.59.242 1.208.242 1.846a7.384 7.384 0 1 1-14.768 0c0-.638.09-1.255.242-1.846h-2.09v10.154c0 .51.414.923.925.923h16.614c.51 0 .925-.413.925-.923V10.153zm0-6.461a.924.924 0 0 0-.925-.923H17.54a.923.923 0 0 0-.923.923v2.77c0 .509.413.922.923.922h2.768c.51 0 .925-.413.925-.923v-2.77zM12 7.384a4.615 4.615 0 1 0 0 9.23 4.615 4.615 0 0 0 0-9.23zM21.232 24H2.769A2.77 2.77 0 0 1 0 21.23V2.769C0 1.239 1.24 0 2.769 0h18.463C22.76 0 24 1.24 24 2.769v18.46A2.77 2.77 0 0 1 21.232 24z" opacity=".502"/>
</svg>
