<svg xmlns="http://www.w3.org/2000/svg" width="58" height="82" viewBox="0 0 58 82">
    <g fill="none" fill-rule="evenodd">
        <path fill="#000" d="M0 0h58v82H0z"/>
        <path fill="#B38E55" d="M11 69L9 49l2 20zM17 41.042L18.507 61l.493-.041L17.493 41z"/>
        <g fill="#B38E55">
            <path d="M29.714 26.66l-1.074.53a41.3 41.3 0 0 1-1.075.555c-.299.148-.589.28-.872.406l-1.241.613a.235.235 0 0 1-.315-.11l-.176-.368c-.9.366-1.48.6-1.402.76.079.167.841.215 1.88.013a9.63 9.63 0 0 0 2.401-.81 10.839 10.839 0 0 0 2.045-1.313c.859-.702 1.334-1.338 1.253-1.51-.077-.158-.629.124-1.473.586l.158.329a.242.242 0 0 1-.11.32"/>
            <path d="M28.64 27.19l-1.947.96c.284-.125.573-.258.872-.405.379-.187.736-.375 1.076-.555M24.961 28.286c.313-.127.663-.27 1.04-.43.427-.182.884-.386 1.355-.618.41-.203.8-.407 1.164-.602.424-.227.806-.439 1.145-.625l-2.157-4.503a.236.236 0 0 0-.314-.11l-4.262 2.104a.241.241 0 0 0-.11.32l2.14 4.464z"/>
            <path d="M27.356 27.238c-.471.232-.928.436-1.355.618-.377.16-.727.304-1.04.43l.176.367c.057.119.198.168.315.111l1.241-.613c-.163.073-.326.145-.483.213.591-.779 1.525-1.27 2.52-1.22-.03.015-.061.03-.09.046l1.074-.53a.243.243 0 0 0 .11-.32l-.158-.328c-.34.186-.721.396-1.147.624-.363.195-.752.4-1.163.602"/>
            <path d="M28.729 27.144c-.995-.05-1.928.441-2.52 1.22.157-.068.32-.14.484-.213l1.947-.961.089-.046M29.846 31.065a1.067 1.067 0 0 1-1.058-1.074c0-.592.475-1.074 1.058-1.074.584 0 1.058.482 1.058 1.074 0 .592-.474 1.074-1.058 1.074m6.274 8.217c-1.22-1.682-2.57-3.27-3.752-4.978-1.337-1.934-.853-3.525.996-4.965.441-.344.893-.706 1.383-.976.292-.159 1.802-.841 1.713-1.095-.1-.28-1.94.158-2.106.178-1.214.148-2.401.444-3.616.17a9.575 9.575 0 0 1-.643-.174c-.544.445-1.239.916-2.046 1.314a9.582 9.582 0 0 1-2.4.81 3.023 3.023 0 0 0-.073.863c.2 3.187-.412 6.06-2.524 8.573-1.374 1.636-2.228 3.624-2.891 5.668a31.191 31.191 0 0 0-1.144 4.72c1.18-.428 1.578-1.406 1.988-2.338.462-1.049 1.23-1.796 2.081-2.51.274.508.28.967.113 1.467-.319.949-.592 1.913-.89 2.87-.446 1.426-.645 2.861-.207 4.33.37 1.24.963 2.377 1.544 3.523.466.92.35 1.192-.565 1.61-.324.147-.647.297-.981.416-.398.14-.579.455-.543.825.044.434.418.433.766.43.445-.004.938-.127 1.233.377.406.695.86.668 1.412.152.359-.336.762-.61 1.283-.22.225.167.53.483.793.137.24-.317.092-.7-.157-.986-.302-.35-.654-.655-.944-1.013-.288-.354-.385-.775.041-1.082l.033-.022a10.208 10.208 0 0 0-.155-.622c-.314-1.114-1.03-2.64-1.315-3.93-.291-1.318-.113-2.71.163-4.26.439-2.465 1.291-4.878 1.687-6.41.595-2.312 1.477-4.324 2.725-4.324 2.272 0 4.477 4.707 4.477 10.01 0 2.235-.1 5.104-.649 6.736-.329.977-1.058 2.31-1.415 3.186.143.01.277.073.376.285.216.465.4.895-.012 1.351-.19.21-.307.475-.325.768-.016.278-.094.6.22.761.294.15.568.006.746-.221.56-.708 1.111-.604 1.667-.019.269.285.454.321.682-.065.648-1.094.66-1.087 1.806-.76.11-.881-.109-1.267-.905-1.498a4.8 4.8 0 0 0-1.509-.186c-.427.016-.581-.218-.608-.617-.03-.43.172-.729.459-1.011.828-.817 1.293-1.835 1.558-2.961.412-1.758.339-3.536.212-5.314a43.381 43.381 0 0 0-.255-2.383c-.046-.352.198-.52.39-.704.177-.17.247.053.32.169.847 1.346 1.502 2.749 1.328 4.418a3.78 3.78 0 0 0 .23 1.837c.515-.805.648-1.64.802-2.45.709-3.707-.47-6.924-2.597-9.86"/>
        </g>
    </g>
</svg>
