<svg xmlns="http://www.w3.org/2000/svg" width="30" height="24" viewBox="0 0 30 24">
    <path fill="#FFF" fill-rule="nonzero" d="M29.532 2.841a12.104 12.104 0 0 1-3.48.954A6.079 6.079 0 0 0 28.716.443a12.127 12.127 0 0 1-3.847 1.47A6.05 6.05 0 0 0 20.446 0a6.059 6.059 0 0 0-5.902 7.44A17.2 17.2 0 0 1 2.056 1.11a6.028 6.028 0 0 0-.82 3.045A6.056 6.056 0 0 0 3.93 9.198a6.03 6.03 0 0 1-2.744-.758v.076a6.063 6.063 0 0 0 4.86 5.942 6.07 6.07 0 0 1-2.737.103 6.065 6.065 0 0 0 5.66 4.208 12.155 12.155 0 0 1-7.525 2.594c-.489 0-.971-.029-1.445-.085A17.148 17.148 0 0 0 9.288 24c11.144 0 17.239-9.232 17.239-17.239 0-.263-.006-.524-.018-.784a12.305 12.305 0 0 0 3.023-3.136z" opacity=".502"/>
</svg>
